<svg width="120" height="30" viewBox="0 0 120 30" fill="none" xmlns="http://www.w3.org/2000/svg">
<path d="M9.98096 22.2306C12.1873 21.8828 19.1997 20.0173 24.4221 17.2102C32.3799 12.9329 32.2268 10.2891 32.5817 10.2259C38.1237 9.23818 27.0834 22.3325 26.5547 24.79C26.3543 25.7213 26.8375 26.0882 27.5384 26.3253C29.2242 26.8957 32.5606 26.2182 41.5211 22.0936C48.453 18.9028 59.5247 12.0563 65.5499 8.53776C72.0727 4.7287 72.8645 4.19715 73.2176 4.02148C73.2713 3.99478 72.875 3.96176 72.5799 4.13566C71.941 4.51215 69.7272 10.2329 66.4493 18.6594C65.2083 21.8497 65.0265 22.9122 65.1389 23.6236C65.2513 24.3351 65.715 24.6829 66.3018 24.862C67.5401 25.2402 70.6195 23.9978 75.2342 21.7792C79.8511 19.5595 84.9009 16.0438 89.4663 12.9416C91.1327 11.8093 91.4812 11.5785 91.6024 11.7489C93.5941 14.5488 91.7201 20.5794 93.0042 23.7413C93.3242 24.5295 94.0529 24.9147 94.8152 25.1536C98.736 24.9288 104.803 21.9004 108.81 19.9505C109.402 19.7714 109.75 19.7714 110.108 19.7714" stroke="#1500FF" stroke-width="3"/>
</svg>
