<svg width="120" height="30" viewBox="0 0 120 30" fill="none" xmlns="http://www.w3.org/2000/svg">
<path d="M1.85059 13.8506C5.97418 13.2615 10.0978 12.6725 11.633 13.2526C13.1682 13.8328 11.99 15.6 11.1474 16.9817C10.3049 18.3634 9.83359 19.3059 12.3595 17.9653C14.8854 16.6247 20.4228 12.9724 23.9823 12.6814C27.5418 12.3904 28.9557 15.5715 32.9239 15.7964C36.8922 16.0213 43.3722 13.1937 47.7118 11.4425C52.0514 9.69133 54.0543 9.10225 55.0271 9.21114C58.908 9.64551 53.1439 18.3634 53.0243 20.0271C52.9725 20.7464 53.1403 21.2196 53.9079 20.9322C61.4941 18.0917 66.2287 10.284 66.2358 11.1034C66.2468 12.3646 64.3579 14.986 63.5707 16.7354C62.7834 18.4848 62.6656 19.1917 64.0776 18.6722C65.4897 18.1527 68.4351 16.3855 69.9524 15.7107C71.4698 15.0359 71.4698 15.5072 71.2341 16.1623C70.9985 16.8175 70.5272 17.6422 70.8146 17.478C72.4662 16.5342 73.6083 14.6861 73.9671 14.9181C74.3599 15.1721 73.619 16.564 73.7315 17.0531C74.5862 20.7706 82.4125 12.7796 83.305 13.0741C83.7066 13.2066 83.6085 13.9577 84.4921 14.4968C90.361 18.0775 96.4541 15.7571 102.027 14.2148C106.058 13.2651 110.128 12.7796 113.514 12.8385C115.016 12.8974 116.076 13.0152 118.24 13.1366" stroke="#1500FF" stroke-width="3"/>
</svg>
