<svg width="120" height="30" viewBox="0 0 120 30" fill="none" xmlns="http://www.w3.org/2000/svg">
<g clip-path="url(#clip0_182_4373)">
<path d="M10.7139 17.6043C16.3443 12.4635 22.06 7.85676 26.8763 4.58348C29.897 2.53052 32.3379 1.65886 34.376 1.1025C35.1824 0.88239 35.5574 0.913335 35.8078 2.25974C36.0581 3.60614 36.1805 6.29894 35.9988 11.0521C35.817 15.8054 35.3274 22.5374 35.5036 25.883C35.6798 29.2286 36.5366 28.9838 38.3856 27.8785C40.2346 26.7731 43.0498 24.8147 47.866 20.5011C52.6823 16.1874 59.4143 9.57778 62.2091 8.31484C65.2622 6.93518 62.2703 17.3409 63.9227 19.0174C65.0842 20.1959 68.8799 17.6339 73.214 14.9801C77.5481 12.3262 82.8113 8.53182 85.7062 6.63832C88.6012 4.74483 88.9684 4.86723 88.9127 6.70509C88.8571 8.54294 88.3675 12.0925 88.9109 13.6763C89.4543 15.2601 91.0455 14.7705 93.2116 13.6003C95.3777 12.4301 98.0705 10.5941 100.743 8.54665C103.415 6.49923 105.986 4.29603 109.376 1.65515" stroke="#1500FF" stroke-width="3"/>
</g>
<defs>
<clipPath id="clip0_182_4373">
<rect width="120" height="30" fill="white"/>
</clipPath>
</defs>
</svg>
