<svg width="120" height="30" viewBox="0 0 120 30" fill="none" xmlns="http://www.w3.org/2000/svg">
<g clip-path="url(#clip0_182_4365)">
<path d="M0 14.3892C0.0898637 14.3892 0.179728 14.3892 5.79757 14.479C11.4154 14.5689 22.5585 14.7486 28.4337 14.5267C34.6327 14.2925 37.3724 10.3317 39.7075 8.21987C39.9812 7.97236 40.2971 7.9462 40.391 8.07963C40.6748 8.48266 39.4937 10.7401 37.9538 14.4069C36.4068 18.0904 35.7658 20.9165 35.8529 22.0521C35.8852 22.4727 36.8387 22.1991 40.3992 19.86C43.9597 17.5208 50.34 13.0276 53.6718 10.8926C57.0036 8.75769 57.0934 9.11715 57.0948 9.48205C57.0975 10.2118 56.8238 12.8233 56.9573 16.5418C57.0107 18.0295 57.7198 18.6427 58.5367 18.6073C60.5747 18.519 64.0592 14.5961 68.0064 10.7388C69.4091 9.36803 69.707 9.30777 69.6662 10.5196C69.6253 11.7314 69.2659 14.2476 69.2604 15.7684C69.255 17.2893 69.6144 17.7386 70.6533 17.8802C73.3747 18.2512 78.0344 16.7583 82.8407 15.3069C87.0446 14.0374 88.8589 14.2094 94.44 13.9371C99.392 13.8445 108.648 13.8445 113.686 13.8895C118.724 13.9344 119.263 14.0243 120.091 14.1168" stroke="#1500FF" stroke-width="3"/>
</g>
<defs>
<clipPath id="clip0_182_4365">
<rect width="120" height="30" fill="white"/>
</clipPath>
</defs>
</svg>
