<svg width="113" height="48" viewBox="0 0 113 48" fill="none" xmlns="http://www.w3.org/2000/svg">
<path d="M22.472 46.616C19.4 46.616 16.52 46.04 13.832 44.888C11.1867 43.736 8.84 42.1573 6.792 40.152C4.744 38.104 3.144 35.736 1.992 33.048C0.84 30.36 0.264 27.48 0.264 24.408C0.264 21.336 0.84 18.4773 1.992 15.832C3.144 13.144 4.72267 10.776 6.728 8.728C8.776 6.68 11.144 5.08 13.832 3.928C16.52 2.776 19.4 2.2 22.472 2.2C25.544 2.2 28.424 2.776 31.112 3.928C33.8 5.08 36.1467 6.68 38.152 8.728C40.2 10.7333 41.8 13.08 42.952 15.768C44.104 18.456 44.68 21.336 44.68 24.408C44.68 27.48 44.104 30.36 42.952 33.048C41.8 35.736 40.2 38.104 38.152 40.152C36.1467 42.1573 33.8 43.736 31.112 44.888C28.424 46.04 25.544 46.616 22.472 46.616ZM22.408 37.4C26.8027 37.4 30.344 35.1387 33.032 30.616L29.128 28.504C28.232 29.8693 27.208 30.8933 26.056 31.576C24.9467 32.2587 23.7307 32.6 22.408 32.6C21.0427 32.6 19.8053 32.2587 18.696 31.576C17.5867 30.8933 16.584 29.8693 15.688 28.504L11.848 30.616C14.4933 35.1387 18.0133 37.4 22.408 37.4ZM14.792 22.936C15.7733 22.936 16.6053 22.5947 17.288 21.912C17.9707 21.2293 18.312 20.3973 18.312 19.416C18.312 18.4347 17.9707 17.6027 17.288 16.92C16.648 16.1947 15.816 15.832 14.792 15.832C13.7253 15.832 12.8507 16.1947 12.168 16.92C11.528 17.6027 11.208 18.4347 11.208 19.416C11.208 20.3973 11.5493 21.2293 12.232 21.912C12.9147 22.5947 13.768 22.936 14.792 22.936ZM30.152 22.936C31.176 22.936 32.0293 22.616 32.712 21.976C33.3947 21.2933 33.736 20.44 33.736 19.416C33.736 18.392 33.3947 17.5387 32.712 16.856C32.0293 16.1733 31.176 15.832 30.152 15.832C29.128 15.832 28.2747 16.1947 27.592 16.92C26.9093 17.6027 26.568 18.4347 26.568 19.416C26.568 20.3973 26.9093 21.2293 27.592 21.912C28.3173 22.5947 29.1707 22.936 30.152 22.936ZM79.3465 47.64L80.6265 32.152L65.2665 33.944L76.9145 23.832L65.2665 13.592L80.6265 15.512L79.3465 0.0239983L89.0745 12.056L98.9305 0.0239983L97.5225 15.512L112.883 13.592L101.235 23.832L112.883 33.944L97.5225 32.152L98.9305 47.64L89.0745 35.48L79.3465 47.64Z" fill="#FAFAFA"/>
</svg>
