<svg width="133" height="133" viewBox="0 0 133 133" fill="none" xmlns="http://www.w3.org/2000/svg">
<g filter="url(#filter0_n_391_526)">
<path d="M11.0424 45.2816C10.1625 44.501 10.7496 43.0479 11.9248 43.0976L42.6895 44.3999C43.4296 44.4312 44.0344 43.8158 43.9901 43.0764L42.1511 12.3391C42.0809 11.165 43.5236 10.5526 44.3194 11.4187L65.1524 34.0935C65.6536 34.639 66.5165 34.6314 67.008 34.0773L87.4422 11.0424C88.2227 10.1625 89.6759 10.7496 89.6261 11.9248L88.3239 42.6895C88.2925 43.4295 88.908 44.0343 89.6474 43.9901L120.385 42.1511C121.559 42.0809 122.171 43.5236 121.305 44.3193L98.6303 65.1524C98.0848 65.6536 98.0923 66.5164 98.6465 67.008L121.681 87.4422C122.561 88.2227 121.974 89.6759 120.799 89.6261L90.0343 88.3238C89.2942 88.2925 88.6894 88.908 88.7337 89.6474L90.5727 120.385C90.6429 121.559 89.2002 122.171 88.4044 121.305L67.5714 98.6302C67.0702 98.0848 66.2073 98.0923 65.7158 98.6464L45.2816 121.681C44.5011 122.561 43.0479 121.974 43.0976 120.799L44.3999 90.0343C44.4313 89.2942 43.8158 88.6894 43.0764 88.7336L12.3391 90.5726C11.165 90.6429 10.5526 89.2002 11.4188 88.4044L34.0935 67.5713C34.639 67.0702 34.6314 66.2073 34.0773 65.7158L11.0424 45.2816Z" fill="#1447E6"/>
<path d="M7.5235 48.8365C3.48257 44.9564 6.26085 38.08 11.8629 38.096L12.1364 38.1022L38.7498 39.229L37.1598 12.6375L37.149 12.3646C37.0334 6.67321 44.0845 3.77276 48.0013 8.03561L66.0239 27.6519L83.7018 7.72449C87.6046 3.32493 94.8703 6.26054 94.6216 12.1364L93.4944 38.7507L120.086 37.1598C125.957 36.8087 129.019 44.0223 124.688 48.0013L105.072 66.0247L124.999 83.7018C129.399 87.6046 126.463 94.8703 120.587 94.6215L93.9727 93.4953L95.564 120.086C95.915 125.957 88.7014 129.019 84.7225 124.688L66.6987 105.072L49.022 124.999C45.1192 129.399 37.8535 126.463 38.1022 120.587L39.2281 93.9736L12.6376 95.5639C6.76709 95.915 3.70515 88.7014 8.03564 84.7225L27.651 66.6996L7.72452 49.022L7.5235 48.8365Z" stroke="#FAFAFA" stroke-width="10" stroke-linejoin="round"/>
</g>
<defs>
<filter id="filter0_n_391_526" x="0.595215" y="0.595215" width="131.533" height="131.533" filterUnits="userSpaceOnUse" color-interpolation-filters="sRGB">
<feFlood flood-opacity="0" result="BackgroundImageFix"/>
<feBlend mode="normal" in="SourceGraphic" in2="BackgroundImageFix" result="shape"/>
<feTurbulence type="fractalNoise" baseFrequency="2 2" stitchTiles="stitch" numOctaves="3" result="noise" seed="2374" />
<feComponentTransfer in="noise" result="coloredNoise1">
<feFuncR type="linear" slope="2" intercept="-0.5" />
<feFuncG type="linear" slope="2" intercept="-0.5" />
<feFuncB type="linear" slope="2" intercept="-0.5" />
<feFuncA type="discrete" tableValues="1 1 1 1 1 1 1 1 1 1 1 1 1 1 1 1 1 1 1 1 1 1 1 1 1 1 1 1 1 1 1 1 1 1 1 1 1 1 1 1 1 1 1 1 1 1 1 1 1 1 1 0 0 0 0 0 0 0 0 0 0 0 0 0 0 0 0 0 0 0 0 0 0 0 0 0 0 0 0 0 0 0 0 0 0 0 0 0 0 0 0 0 0 0 0 0 0 0 0 0 "/>
</feComponentTransfer>
<feComposite operator="in" in2="shape" in="coloredNoise1" result="noise1Clipped" />
<feComponentTransfer in="noise1Clipped" result="color1">
<feFuncA type="table" tableValues="0 0.15" />
</feComponentTransfer>
<feMerge result="effect1_noise_391_526">
<feMergeNode in="shape" />
<feMergeNode in="color1" />
</feMerge>
</filter>
</defs>
</svg>
