<svg width="260" height="91" viewBox="0 0 260 91" fill="none" xmlns="http://www.w3.org/2000/svg">
<g filter="url(#filter0_n_391_520)">
<rect y="0.352539" width="259.656" height="90" rx="45" fill="#FF6900"/>
<rect x="5" y="5.35254" width="249.656" height="80" rx="40" stroke="#FAFAFA" stroke-width="10"/>
<path d="M36.4627 55.2975C36.2977 54.3225 35.8627 53.2725 35.1577 52.1475C34.4527 51.0075 33.4477 49.95 32.1427 48.975C30.8527 48 29.5627 47.3775 28.2727 47.1075V46.1625C29.5477 45.8625 30.7702 45.3075 31.9402 44.4975C33.1252 43.6725 34.1152 42.6825 34.9102 41.5275C35.7202 40.3425 36.2377 39.1725 36.4627 38.0175H37.4077C37.5427 38.7675 37.8127 39.54 38.2177 40.335C38.6227 41.115 39.1402 41.865 39.7702 42.585C40.4152 43.29 41.1352 43.9275 41.9302 44.4975C43.1152 45.3375 44.3227 45.8925 45.5527 46.1625V47.1075C44.7277 47.2725 43.8727 47.61 42.9877 48.12C42.1177 48.63 41.3077 49.2375 40.5577 49.9425C39.8077 50.6325 39.1927 51.36 38.7127 52.125C38.0077 53.25 37.5727 54.3075 37.4077 55.2975H36.4627Z" fill="#FAFAFA"/>
<path d="M57.4092 60.3525V29.9775H63.5967V41.8275H76.5717V29.9775H82.7592V60.3525H76.5717V47.3775H63.5967V60.3525H57.4092ZM110.172 60.3525H89.8848V29.9775H110.172V35.5275H96.0723V41.9025H109.047V47.3025H96.0723V54.8025H110.172V60.3525ZM115.988 60.3525V29.9775H122.176V54.8025H136.201V60.3525H115.988ZM140.905 60.3525V29.9775H147.093V54.8025H161.118V60.3525H140.905ZM177.078 60.8025C174.353 60.8025 171.916 60.165 169.766 58.89C167.641 57.59 165.953 55.7775 164.703 53.4525C163.478 51.1025 162.866 48.34 162.866 45.165C162.866 41.965 163.478 39.2025 164.703 36.8775C165.953 34.5275 167.641 32.715 169.766 31.44C171.916 30.165 174.353 29.5275 177.078 29.5275C179.828 29.5275 182.266 30.165 184.391 31.44C186.541 32.69 188.228 34.49 189.453 36.84C190.678 39.165 191.291 41.94 191.291 45.165C191.291 48.34 190.666 51.1025 189.416 53.4525C188.191 55.8025 186.516 57.615 184.391 58.89C182.266 60.165 179.828 60.8025 177.078 60.8025ZM177.078 55.2525C178.703 55.2525 180.103 54.84 181.278 54.015C182.478 53.165 183.403 51.99 184.053 50.49C184.728 48.965 185.066 47.19 185.066 45.165C185.066 43.115 184.728 41.34 184.053 39.84C183.403 38.315 182.478 37.14 181.278 36.315C180.103 35.49 178.703 35.0775 177.078 35.0775C175.478 35.0775 174.078 35.49 172.878 36.315C171.678 37.14 170.741 38.315 170.066 39.84C169.416 41.34 169.091 43.115 169.091 45.165C169.091 47.19 169.416 48.965 170.066 50.49C170.741 51.99 171.678 53.165 172.878 54.015C174.078 54.84 175.478 55.2525 177.078 55.2525ZM197.086 50.7525L196.523 40.065V29.9775H202.673V40.1025L202.111 50.7525H197.086ZM199.598 60.8025C198.598 60.8025 197.748 60.465 197.048 59.79C196.373 59.09 196.036 58.24 196.036 57.24C196.036 56.215 196.373 55.365 197.048 54.69C197.748 53.99 198.598 53.64 199.598 53.64C200.598 53.64 201.436 53.99 202.111 54.69C202.811 55.365 203.161 56.215 203.161 57.24C203.161 58.24 202.811 59.09 202.111 59.79C201.436 60.465 200.598 60.8025 199.598 60.8025Z" fill="#FAFAFA"/>
<path d="M222.291 55.2975C222.126 54.3225 221.691 53.2725 220.986 52.1475C220.281 51.0075 219.276 49.95 217.971 48.975C216.681 48 215.391 47.3775 214.101 47.1075V46.1625C215.376 45.8625 216.598 45.3075 217.768 44.4975C218.953 43.6725 219.943 42.6825 220.738 41.5275C221.548 40.3425 222.066 39.1725 222.291 38.0175H223.236C223.371 38.7675 223.641 39.54 224.046 40.335C224.451 41.115 224.968 41.865 225.598 42.585C226.243 43.29 226.963 43.9275 227.758 44.4975C228.943 45.3375 230.151 45.8925 231.381 46.1625V47.1075C230.556 47.2725 229.701 47.61 228.816 48.12C227.946 48.63 227.136 49.2375 226.386 49.9425C225.636 50.6325 225.021 51.36 224.541 52.125C223.836 53.25 223.401 54.3075 223.236 55.2975H222.291Z" fill="#FAFAFA"/>
</g>
<defs>
<filter id="filter0_n_391_520" x="0" y="0.352539" width="259.656" height="90" filterUnits="userSpaceOnUse" color-interpolation-filters="sRGB">
<feFlood flood-opacity="0" result="BackgroundImageFix"/>
<feBlend mode="normal" in="SourceGraphic" in2="BackgroundImageFix" result="shape"/>
<feTurbulence type="fractalNoise" baseFrequency="2 2" stitchTiles="stitch" numOctaves="3" result="noise" seed="2374" />
<feComponentTransfer in="noise" result="coloredNoise1">
<feFuncR type="linear" slope="2" intercept="-0.5" />
<feFuncG type="linear" slope="2" intercept="-0.5" />
<feFuncB type="linear" slope="2" intercept="-0.5" />
<feFuncA type="discrete" tableValues="1 1 1 1 1 1 1 1 1 1 1 1 1 1 1 1 1 1 1 1 1 1 1 1 1 1 1 1 1 1 1 1 1 1 1 1 1 1 1 1 1 1 1 1 1 1 1 1 1 1 1 0 0 0 0 0 0 0 0 0 0 0 0 0 0 0 0 0 0 0 0 0 0 0 0 0 0 0 0 0 0 0 0 0 0 0 0 0 0 0 0 0 0 0 0 0 0 0 0 0 "/>
</feComponentTransfer>
<feComposite operator="in" in2="shape" in="coloredNoise1" result="noise1Clipped" />
<feComponentTransfer in="noise1Clipped" result="color1">
<feFuncA type="table" tableValues="0 0.15" />
</feComponentTransfer>
<feMerge result="effect1_noise_391_520">
<feMergeNode in="shape" />
<feMergeNode in="color1" />
</feMerge>
</filter>
</defs>
</svg>
