<svg width="80" height="80" viewBox="0 0 80 80" fill="none" xmlns="http://www.w3.org/2000/svg">
<g filter="url(#filter0_n_391_572)">
<path d="M39.1783 72C38.6904 72 38.2761 71.6477 38.1763 71.1701C37.471 67.7949 35.9123 64.1827 33.5 60.3333C30.8889 56.1111 27.1667 52.1944 22.3333 48.5833C17.8197 45.1719 13.3061 42.9256 8.79248 41.8445C8.33217 41.7343 8 41.3276 8 40.8543V38.9587C8 38.4946 8.31961 38.093 8.76892 37.977C13.2143 36.8291 17.4857 34.8368 21.5833 32C25.9722 28.9444 29.6389 25.2778 32.5833 21C35.395 16.8866 37.2551 12.8221 38.1636 8.80629C38.2692 8.33952 38.6788 8 39.1573 8H40.9973C41.4812 8 41.8937 8.34696 41.995 8.82019C42.5344 11.3401 43.4805 13.9278 44.8333 16.5833C46.3333 19.4722 48.25 22.25 50.5833 24.9167C52.9722 27.5278 55.6389 29.8889 58.5833 32C62.7204 34.9326 66.9316 36.9273 71.2168 37.9841C71.6728 38.0966 72 38.5013 72 38.971V40.8469C72 41.3235 71.6631 41.7319 71.1991 41.8409C68.392 42.5004 65.4923 43.6923 62.5 45.4167C59.2778 47.3056 56.2778 49.5556 53.5 52.1667C50.7222 54.7222 48.4444 57.4167 46.6667 60.25C44.2521 64.103 42.6927 67.7421 41.9884 71.1675C41.8899 71.6464 41.475 72 40.9862 72H39.1783Z" fill="#171717"/>
<path d="M40.9971 4L41.2256 4.00488C43.4925 4.10591 45.3208 5.70407 45.8574 7.77441L45.9062 7.98242L45.9961 8.38379C46.4643 10.3894 47.2483 12.5067 48.3838 14.7402L48.6387 15.2236C49.9372 17.6289 51.5784 19.9757 53.5781 22.2637C55.7596 24.6415 58.197 26.799 60.8965 28.7363C64.6849 31.4218 68.4432 33.1803 72.1748 34.1006C74.3576 34.639 75.9999 36.6003 76 38.9707V40.8467C76 43.2583 74.3082 45.2187 72.1143 45.7344C69.7532 46.2891 67.216 47.316 64.4971 48.8828L64.4961 48.8818C61.5473 50.6131 58.7959 52.6778 56.2393 55.0811C56.2289 55.0908 56.2185 55.1007 56.208 55.1104C53.6593 57.4552 51.6207 59.8801 50.0547 62.376C47.8222 65.9389 46.4903 69.1331 45.9062 71.9736C45.4433 74.2242 43.4617 75.9999 40.9863 76H39.1787C36.7075 76 34.7293 74.2306 34.2607 71.9883C33.6775 69.197 32.3467 66.0257 30.1104 62.457C30.1062 62.4505 30.1017 62.4441 30.0977 62.4375C27.8007 58.7232 24.4547 55.1616 19.9395 51.7881C19.9336 51.7837 19.9277 51.7788 19.9219 51.7744C15.7541 48.6244 11.7338 46.6621 7.86035 45.7344C5.66756 45.209 4.00009 43.2454 4 40.8545V38.959C4 36.6199 5.60332 34.6627 7.76855 34.1035L8.50879 33.9033C12.1972 32.8583 15.7916 31.143 19.2979 28.7168C23.3037 25.9279 26.6246 22.6019 29.2881 18.7324C31.8692 14.9541 33.4859 11.353 34.2617 7.92383C34.7637 5.70489 36.738 4.00005 39.1572 4H40.9971Z" stroke="#FAFAFA" stroke-width="8" stroke-linejoin="round"/>
</g>
<defs>
<filter id="filter0_n_391_572" x="0" y="0" width="80" height="80" filterUnits="userSpaceOnUse" color-interpolation-filters="sRGB">
<feFlood flood-opacity="0" result="BackgroundImageFix"/>
<feBlend mode="normal" in="SourceGraphic" in2="BackgroundImageFix" result="shape"/>
<feTurbulence type="fractalNoise" baseFrequency="2 2" stitchTiles="stitch" numOctaves="3" result="noise" seed="2374" />
<feComponentTransfer in="noise" result="coloredNoise1">
<feFuncR type="linear" slope="2" intercept="-0.5" />
<feFuncG type="linear" slope="2" intercept="-0.5" />
<feFuncB type="linear" slope="2" intercept="-0.5" />
<feFuncA type="discrete" tableValues="1 1 1 1 1 1 1 1 1 1 1 1 1 1 1 1 1 1 1 1 1 1 1 1 1 1 1 1 1 1 1 1 1 1 1 1 1 1 1 1 1 1 1 1 1 1 1 1 1 1 1 0 0 0 0 0 0 0 0 0 0 0 0 0 0 0 0 0 0 0 0 0 0 0 0 0 0 0 0 0 0 0 0 0 0 0 0 0 0 0 0 0 0 0 0 0 0 0 0 0 "/>
</feComponentTransfer>
<feComposite operator="in" in2="shape" in="coloredNoise1" result="noise1Clipped" />
<feComponentTransfer in="noise1Clipped" result="color1">
<feFuncA type="table" tableValues="0 0.15" />
</feComponentTransfer>
<feMerge result="effect1_noise_391_572">
<feMergeNode in="shape" />
<feMergeNode in="color1" />
</feMerge>
</filter>
</defs>
</svg>
